<mxfile host="app.diagrams.net" modified="2023-12-05T18:35:31.805Z" agent="Mozilla/5.0 (Macintosh; Intel Mac OS X 10_15_7) AppleWebKit/537.36 (KHTML, like Gecko) Chrome/119.0.0.0 Safari/537.36" etag="Ao9otmkLcw61SfehDvIC" version="22.1.5" type="device" pages="2">
  <diagram name="Страница — 1" id="5sFfdiXSSPYg_MGfpaHV">
    <mxGraphModel dx="3241" dy="3050" grid="1" gridSize="10" guides="1" tooltips="1" connect="1" arrows="1" fold="1" page="1" pageScale="1" pageWidth="827" pageHeight="1169" math="0" shadow="0">
      <root>
        <mxCell id="0" />
        <mxCell id="1" parent="0" />
        <mxCell id="ZqFkhhLRCjHZOJYOurKl-1" value="Поведение пользователя" style="shape=umlFrame;whiteSpace=wrap;html=1;pointerEvents=0;width=100;height=30;" parent="1" vertex="1">
          <mxGeometry x="-820" y="-700" width="1740" height="1550" as="geometry" />
        </mxCell>
        <mxCell id="ZqFkhhLRCjHZOJYOurKl-2" value="" style="shape=ellipse;html=1;fillColor=strokeColor;fontSize=18;fontColor=#ffffff;" parent="1" vertex="1">
          <mxGeometry x="-660" y="-60" width="20" height="20" as="geometry" />
        </mxCell>
        <mxCell id="ZqFkhhLRCjHZOJYOurKl-3" value="" style="shape=mxgraph.sysml.actFinal;html=1;verticalLabelPosition=bottom;labelBackgroundColor=#ffffff;verticalAlign=top;" parent="1" vertex="1">
          <mxGeometry x="-660" y="-20" width="20" height="20" as="geometry" />
        </mxCell>
        <mxCell id="ZqFkhhLRCjHZOJYOurKl-14" style="edgeStyle=orthogonalEdgeStyle;rounded=0;orthogonalLoop=1;jettySize=auto;html=1;curved=1;exitX=0.5;exitY=1;exitDx=0;exitDy=0;exitPerimeter=0;" parent="1" source="ZqFkhhLRCjHZOJYOurKl-7" target="ZqFkhhLRCjHZOJYOurKl-12" edge="1">
          <mxGeometry relative="1" as="geometry" />
        </mxCell>
        <mxCell id="ZqFkhhLRCjHZOJYOurKl-15" style="edgeStyle=orthogonalEdgeStyle;rounded=0;orthogonalLoop=1;jettySize=auto;html=1;curved=1;entryX=0.5;entryY=0;entryDx=0;entryDy=0;entryPerimeter=0;" parent="1" source="ZqFkhhLRCjHZOJYOurKl-7" target="ZqFkhhLRCjHZOJYOurKl-21" edge="1">
          <mxGeometry relative="1" as="geometry">
            <mxPoint x="-300" y="130" as="targetPoint" />
            <Array as="points">
              <mxPoint x="-290" y="20" />
              <mxPoint x="-290" y="310" />
            </Array>
          </mxGeometry>
        </mxCell>
        <mxCell id="ZqFkhhLRCjHZOJYOurKl-7" value="Ожидание выбора действия&lt;br&gt;(главная страница)" style="strokeWidth=2;html=1;shape=mxgraph.flowchart.terminator;whiteSpace=wrap;" parent="1" vertex="1">
          <mxGeometry x="-250" y="-10" width="120" height="60" as="geometry" />
        </mxCell>
        <mxCell id="ZqFkhhLRCjHZOJYOurKl-10" style="edgeStyle=orthogonalEdgeStyle;rounded=0;orthogonalLoop=1;jettySize=auto;html=1;entryX=0;entryY=0.5;entryDx=0;entryDy=0;entryPerimeter=0;curved=1;" parent="1" source="ZqFkhhLRCjHZOJYOurKl-2" target="f9SN7dFAWlkoOtjX_CD_-2" edge="1">
          <mxGeometry relative="1" as="geometry">
            <Array as="points">
              <mxPoint x="-650" y="-70" />
              <mxPoint x="-500" y="-70" />
              <mxPoint x="-500" y="-140" />
            </Array>
            <mxPoint x="-430" y="-60" as="targetPoint" />
          </mxGeometry>
        </mxCell>
        <mxCell id="ZqFkhhLRCjHZOJYOurKl-23" style="edgeStyle=orthogonalEdgeStyle;rounded=0;orthogonalLoop=1;jettySize=auto;html=1;curved=1;" parent="1" source="ZqFkhhLRCjHZOJYOurKl-12" target="ZqFkhhLRCjHZOJYOurKl-21" edge="1">
          <mxGeometry relative="1" as="geometry" />
        </mxCell>
        <mxCell id="ZqFkhhLRCjHZOJYOurKl-27" style="edgeStyle=orthogonalEdgeStyle;rounded=0;orthogonalLoop=1;jettySize=auto;html=1;entryX=1;entryY=0.5;entryDx=0;entryDy=0;entryPerimeter=0;curved=1;exitX=1;exitY=0.5;exitDx=0;exitDy=0;exitPerimeter=0;" parent="1" source="ZqFkhhLRCjHZOJYOurKl-12" target="ZqFkhhLRCjHZOJYOurKl-7" edge="1">
          <mxGeometry relative="1" as="geometry">
            <Array as="points">
              <mxPoint x="80" y="160" />
              <mxPoint x="80" y="20" />
            </Array>
          </mxGeometry>
        </mxCell>
        <mxCell id="ZqFkhhLRCjHZOJYOurKl-12" value="Обработка запроса на поиск экскурсии&lt;br&gt;(форма поиска экскурсии)" style="strokeWidth=2;html=1;shape=mxgraph.flowchart.terminator;whiteSpace=wrap;" parent="1" vertex="1">
          <mxGeometry x="-140" y="130" width="130" height="90" as="geometry" />
        </mxCell>
        <mxCell id="ZqFkhhLRCjHZOJYOurKl-16" value="Выбор действия на &lt;br&gt;поиск экскурсии" style="text;html=1;align=center;verticalAlign=middle;resizable=0;points=[];autosize=1;strokeColor=none;fillColor=none;" parent="1" vertex="1">
          <mxGeometry x="-140" y="50" width="130" height="40" as="geometry" />
        </mxCell>
        <mxCell id="ZqFkhhLRCjHZOJYOurKl-21" value="Ожидание обработки запроса&lt;br&gt;(страница с загрузкой)" style="strokeWidth=2;html=1;shape=mxgraph.flowchart.terminator;whiteSpace=wrap;" parent="1" vertex="1">
          <mxGeometry x="-250" y="310" width="120" height="70" as="geometry" />
        </mxCell>
        <mxCell id="ZqFkhhLRCjHZOJYOurKl-24" value="Обработка запроса" style="text;html=1;align=center;verticalAlign=middle;resizable=0;points=[];autosize=1;strokeColor=none;fillColor=none;" parent="1" vertex="1">
          <mxGeometry x="-160" y="260" width="130" height="30" as="geometry" />
        </mxCell>
        <mxCell id="ZqFkhhLRCjHZOJYOurKl-28" value="Отмена запроса" style="text;html=1;align=center;verticalAlign=middle;resizable=0;points=[];autosize=1;strokeColor=none;fillColor=none;" parent="1" vertex="1">
          <mxGeometry x="230" y="20" width="110" height="30" as="geometry" />
        </mxCell>
        <mxCell id="ZqFkhhLRCjHZOJYOurKl-37" style="edgeStyle=orthogonalEdgeStyle;rounded=0;orthogonalLoop=1;jettySize=auto;html=1;curved=1;" parent="1" source="ZqFkhhLRCjHZOJYOurKl-33" target="ZqFkhhLRCjHZOJYOurKl-36" edge="1">
          <mxGeometry relative="1" as="geometry" />
        </mxCell>
        <mxCell id="ZqFkhhLRCjHZOJYOurKl-38" style="edgeStyle=orthogonalEdgeStyle;rounded=0;orthogonalLoop=1;jettySize=auto;html=1;curved=1;" parent="1" source="ZqFkhhLRCjHZOJYOurKl-33" target="ZqFkhhLRCjHZOJYOurKl-7" edge="1">
          <mxGeometry relative="1" as="geometry">
            <mxPoint x="-105" y="600" as="targetPoint" />
            <Array as="points">
              <mxPoint x="80" y="530" />
              <mxPoint x="80" y="20" />
            </Array>
          </mxGeometry>
        </mxCell>
        <mxCell id="ZqFkhhLRCjHZOJYOurKl-33" value="" style="strokeWidth=2;html=1;shape=mxgraph.flowchart.decision;whiteSpace=wrap;" parent="1" vertex="1">
          <mxGeometry x="-210" y="510" width="30" height="40" as="geometry" />
        </mxCell>
        <mxCell id="ZqFkhhLRCjHZOJYOurKl-34" style="edgeStyle=orthogonalEdgeStyle;rounded=0;orthogonalLoop=1;jettySize=auto;html=1;entryX=0.5;entryY=0;entryDx=0;entryDy=0;entryPerimeter=0;" parent="1" source="ZqFkhhLRCjHZOJYOurKl-21" target="ZqFkhhLRCjHZOJYOurKl-33" edge="1">
          <mxGeometry relative="1" as="geometry">
            <mxPoint x="-195" y="450" as="sourcePoint" />
            <Array as="points">
              <mxPoint x="-195" y="410" />
              <mxPoint x="-195" y="410" />
            </Array>
          </mxGeometry>
        </mxCell>
        <mxCell id="ZqFkhhLRCjHZOJYOurKl-36" value="Переход на страницу&amp;nbsp;&lt;br&gt;результатом поиска&amp;nbsp;" style="strokeWidth=2;html=1;shape=mxgraph.flowchart.terminator;whiteSpace=wrap;" parent="1" vertex="1">
          <mxGeometry x="-350" y="600" width="130" height="80" as="geometry" />
        </mxCell>
        <mxCell id="ZqFkhhLRCjHZOJYOurKl-39" value="Одобрено" style="text;html=1;align=center;verticalAlign=middle;resizable=0;points=[];autosize=1;strokeColor=none;fillColor=none;" parent="1" vertex="1">
          <mxGeometry x="-340" y="515" width="80" height="30" as="geometry" />
        </mxCell>
        <mxCell id="ZqFkhhLRCjHZOJYOurKl-40" value="Не одобрено" style="text;html=1;align=center;verticalAlign=middle;resizable=0;points=[];autosize=1;strokeColor=none;fillColor=none;" parent="1" vertex="1">
          <mxGeometry x="-100" y="485" width="100" height="30" as="geometry" />
        </mxCell>
        <mxCell id="ZqFkhhLRCjHZOJYOurKl-41" style="edgeStyle=orthogonalEdgeStyle;rounded=0;orthogonalLoop=1;jettySize=auto;html=1;entryX=0.5;entryY=1;entryDx=0;entryDy=0;entryPerimeter=0;curved=1;" parent="1" source="ZqFkhhLRCjHZOJYOurKl-36" target="vOHl85reNd6OI8K4IFUe-1" edge="1">
          <mxGeometry relative="1" as="geometry">
            <Array as="points">
              <mxPoint x="-570" y="640" />
              <mxPoint x="-570" y="590" />
              <mxPoint x="-430" y="590" />
            </Array>
          </mxGeometry>
        </mxCell>
        <mxCell id="vOHl85reNd6OI8K4IFUe-4" style="edgeStyle=orthogonalEdgeStyle;rounded=0;orthogonalLoop=1;jettySize=auto;html=1;curved=1;" parent="1" source="vOHl85reNd6OI8K4IFUe-1" target="vOHl85reNd6OI8K4IFUe-3" edge="1">
          <mxGeometry relative="1" as="geometry">
            <Array as="points">
              <mxPoint x="-440" y="405" />
              <mxPoint x="-413" y="405" />
            </Array>
          </mxGeometry>
        </mxCell>
        <mxCell id="vOHl85reNd6OI8K4IFUe-1" value="Ожидание выбора действия&lt;br&gt;(Страница экскурсий)" style="strokeWidth=2;html=1;shape=mxgraph.flowchart.terminator;whiteSpace=wrap;" parent="1" vertex="1">
          <mxGeometry x="-490" y="470" width="120" height="60" as="geometry" />
        </mxCell>
        <mxCell id="vOHl85reNd6OI8K4IFUe-3" value="Переход на страницу&amp;nbsp;&lt;br&gt;(главная страница)" style="strokeWidth=2;html=1;shape=mxgraph.flowchart.terminator;whiteSpace=wrap;" parent="1" vertex="1">
          <mxGeometry x="-478" y="260" width="130" height="80" as="geometry" />
        </mxCell>
        <mxCell id="vOHl85reNd6OI8K4IFUe-5" style="edgeStyle=orthogonalEdgeStyle;rounded=0;orthogonalLoop=1;jettySize=auto;html=1;entryX=0;entryY=0.5;entryDx=0;entryDy=0;entryPerimeter=0;curved=1;" parent="1" source="vOHl85reNd6OI8K4IFUe-3" target="ZqFkhhLRCjHZOJYOurKl-7" edge="1">
          <mxGeometry relative="1" as="geometry" />
        </mxCell>
        <mxCell id="vOHl85reNd6OI8K4IFUe-7" style="edgeStyle=orthogonalEdgeStyle;rounded=0;orthogonalLoop=1;jettySize=auto;html=1;entryX=0.5;entryY=0;entryDx=0;entryDy=0;entryPerimeter=0;curved=1;" parent="1" source="vOHl85reNd6OI8K4IFUe-1" target="ZqFkhhLRCjHZOJYOurKl-12" edge="1">
          <mxGeometry relative="1" as="geometry" />
        </mxCell>
        <mxCell id="f9SN7dFAWlkoOtjX_CD_-2" value="Ожидание логина и пароля&lt;br&gt;(форма авторизации)" style="strokeWidth=2;html=1;shape=mxgraph.flowchart.terminator;whiteSpace=wrap;" parent="1" vertex="1">
          <mxGeometry x="-435" y="-170" width="100" height="60" as="geometry" />
        </mxCell>
        <mxCell id="f9SN7dFAWlkoOtjX_CD_-3" style="edgeStyle=orthogonalEdgeStyle;rounded=0;orthogonalLoop=1;jettySize=auto;html=1;entryX=0.634;entryY=0.502;entryDx=0;entryDy=0;entryPerimeter=0;curved=1;" parent="1" source="f9SN7dFAWlkoOtjX_CD_-2" target="ZqFkhhLRCjHZOJYOurKl-3" edge="1">
          <mxGeometry relative="1" as="geometry">
            <Array as="points">
              <mxPoint x="-300" y="-140" />
              <mxPoint x="-300" y="-60" />
              <mxPoint x="-490" y="-60" />
              <mxPoint x="-490" y="-40" />
              <mxPoint x="-647" y="-40" />
            </Array>
            <mxPoint x="-425" y="-130" as="targetPoint" />
            <mxPoint x="-640" y="-50" as="sourcePoint" />
          </mxGeometry>
        </mxCell>
        <mxCell id="f9SN7dFAWlkoOtjX_CD_-4" value="Логин и пароль неверны" style="text;html=1;align=center;verticalAlign=middle;resizable=0;points=[];autosize=1;strokeColor=none;fillColor=none;" parent="1" vertex="1">
          <mxGeometry x="-483" y="-50" width="160" height="30" as="geometry" />
        </mxCell>
        <mxCell id="f9SN7dFAWlkoOtjX_CD_-5" style="edgeStyle=orthogonalEdgeStyle;rounded=0;orthogonalLoop=1;jettySize=auto;html=1;curved=1;" parent="1" source="f9SN7dFAWlkoOtjX_CD_-2" target="ZqFkhhLRCjHZOJYOurKl-7" edge="1">
          <mxGeometry relative="1" as="geometry">
            <Array as="points">
              <mxPoint x="-250" y="-150" />
              <mxPoint x="-250" y="-80" />
              <mxPoint x="-190" y="-80" />
            </Array>
            <mxPoint x="-55" y="-220" as="targetPoint" />
            <mxPoint x="-270" y="-140" as="sourcePoint" />
          </mxGeometry>
        </mxCell>
        <mxCell id="f9SN7dFAWlkoOtjX_CD_-6" value="Логин и пароль верные" style="text;html=1;align=center;verticalAlign=middle;resizable=0;points=[];autosize=1;strokeColor=none;fillColor=none;" parent="1" vertex="1">
          <mxGeometry x="-348" y="-180" width="150" height="30" as="geometry" />
        </mxCell>
        <mxCell id="f9SN7dFAWlkoOtjX_CD_-7" value="Обработка запроса на бронирование экскурсии&lt;br&gt;(форма бронирования экскурсии)" style="strokeWidth=2;html=1;shape=mxgraph.flowchart.terminator;whiteSpace=wrap;" parent="1" vertex="1">
          <mxGeometry x="180" y="220" width="130" height="90" as="geometry" />
        </mxCell>
        <mxCell id="f9SN7dFAWlkoOtjX_CD_-10" value="Ожидание обработки запроса&lt;br style=&quot;border-color: var(--border-color);&quot;&gt;(страница с загрузкой)" style="strokeWidth=2;html=1;shape=mxgraph.flowchart.terminator;whiteSpace=wrap;" parent="1" vertex="1">
          <mxGeometry x="490" y="220" width="130" height="90" as="geometry" />
        </mxCell>
        <mxCell id="f9SN7dFAWlkoOtjX_CD_-11" style="edgeStyle=orthogonalEdgeStyle;rounded=0;orthogonalLoop=1;jettySize=auto;html=1;curved=1;" parent="1" source="f9SN7dFAWlkoOtjX_CD_-7" target="f9SN7dFAWlkoOtjX_CD_-10" edge="1">
          <mxGeometry relative="1" as="geometry">
            <mxPoint x="-110" y="390" as="sourcePoint" />
            <mxPoint x="255" y="320" as="targetPoint" />
            <Array as="points">
              <mxPoint x="400" y="265" />
              <mxPoint x="400" y="265" />
            </Array>
          </mxGeometry>
        </mxCell>
        <mxCell id="f9SN7dFAWlkoOtjX_CD_-12" value="Обработка запроса" style="text;html=1;align=center;verticalAlign=middle;resizable=0;points=[];autosize=1;strokeColor=none;fillColor=none;" parent="1" vertex="1">
          <mxGeometry x="340" y="220" width="130" height="30" as="geometry" />
        </mxCell>
        <mxCell id="f9SN7dFAWlkoOtjX_CD_-13" style="edgeStyle=orthogonalEdgeStyle;rounded=0;orthogonalLoop=1;jettySize=auto;html=1;curved=1;" parent="1" source="f9SN7dFAWlkoOtjX_CD_-7" target="ZqFkhhLRCjHZOJYOurKl-7" edge="1">
          <mxGeometry relative="1" as="geometry">
            <Array as="points">
              <mxPoint x="250" y="-120" />
              <mxPoint x="-190" y="-120" />
            </Array>
            <mxPoint x="1140" y="605" as="sourcePoint" />
            <mxPoint x="390" y="380" as="targetPoint" />
          </mxGeometry>
        </mxCell>
        <mxCell id="f9SN7dFAWlkoOtjX_CD_-14" value="" style="strokeWidth=2;html=1;shape=mxgraph.flowchart.decision;whiteSpace=wrap;" parent="1" vertex="1">
          <mxGeometry x="720" y="240" width="30" height="40" as="geometry" />
        </mxCell>
        <mxCell id="f9SN7dFAWlkoOtjX_CD_-16" style="edgeStyle=orthogonalEdgeStyle;rounded=0;orthogonalLoop=1;jettySize=auto;html=1;curved=1;entryX=0.5;entryY=0;entryDx=0;entryDy=0;entryPerimeter=0;" parent="1" source="f9SN7dFAWlkoOtjX_CD_-14" target="ZqFkhhLRCjHZOJYOurKl-7" edge="1">
          <mxGeometry relative="1" as="geometry">
            <Array as="points">
              <mxPoint x="735" y="-160" />
              <mxPoint x="-190" y="-160" />
            </Array>
            <mxPoint x="770" y="230" as="sourcePoint" />
            <mxPoint x="401" y="380" as="targetPoint" />
          </mxGeometry>
        </mxCell>
        <mxCell id="f9SN7dFAWlkoOtjX_CD_-17" value="Одобрено" style="text;html=1;align=center;verticalAlign=middle;resizable=0;points=[];autosize=1;strokeColor=none;fillColor=none;" parent="1" vertex="1">
          <mxGeometry x="570" y="-40" width="80" height="30" as="geometry" />
        </mxCell>
        <mxCell id="f9SN7dFAWlkoOtjX_CD_-18" style="edgeStyle=orthogonalEdgeStyle;rounded=0;orthogonalLoop=1;jettySize=auto;html=1;curved=1;" parent="1" source="vOHl85reNd6OI8K4IFUe-1" target="f9SN7dFAWlkoOtjX_CD_-7" edge="1">
          <mxGeometry relative="1" as="geometry">
            <mxPoint x="-200" y="540" as="sourcePoint" />
            <mxPoint x="-275" y="610" as="targetPoint" />
            <Array as="points">
              <mxPoint x="-620" y="500" />
              <mxPoint x="-620" y="770" />
              <mxPoint x="245" y="770" />
            </Array>
          </mxGeometry>
        </mxCell>
        <mxCell id="f9SN7dFAWlkoOtjX_CD_-19" value="Выбор действия на &lt;br&gt;бронирования экскурсии" style="text;html=1;align=center;verticalAlign=middle;resizable=0;points=[];autosize=1;strokeColor=none;fillColor=none;" parent="1" vertex="1">
          <mxGeometry x="-210" y="710" width="170" height="40" as="geometry" />
        </mxCell>
        <mxCell id="f9SN7dFAWlkoOtjX_CD_-20" style="edgeStyle=orthogonalEdgeStyle;rounded=0;orthogonalLoop=1;jettySize=auto;html=1;curved=1;exitX=1;exitY=0.5;exitDx=0;exitDy=0;exitPerimeter=0;entryX=0.5;entryY=0;entryDx=0;entryDy=0;entryPerimeter=0;" parent="1" source="f9SN7dFAWlkoOtjX_CD_-14" target="ZqFkhhLRCjHZOJYOurKl-7" edge="1">
          <mxGeometry relative="1" as="geometry">
            <Array as="points">
              <mxPoint x="870" y="260" />
              <mxPoint x="870" y="-210" />
              <mxPoint x="-190" y="-210" />
            </Array>
            <mxPoint x="675" y="-140" as="sourcePoint" />
            <mxPoint x="-169" as="targetPoint" />
          </mxGeometry>
        </mxCell>
        <mxCell id="f9SN7dFAWlkoOtjX_CD_-21" value="Не одобрено" style="text;html=1;align=center;verticalAlign=middle;resizable=0;points=[];autosize=1;strokeColor=none;fillColor=none;" parent="1" vertex="1">
          <mxGeometry x="530" y="-230" width="100" height="30" as="geometry" />
        </mxCell>
        <mxCell id="f9SN7dFAWlkoOtjX_CD_-24" value="Ожидание выбора действия&lt;br style=&quot;border-color: var(--border-color);&quot;&gt;(Страница кабинета пользователя)" style="strokeWidth=2;html=1;shape=mxgraph.flowchart.terminator;whiteSpace=wrap;" parent="1" vertex="1">
          <mxGeometry x="-40" y="-360" width="130" height="90" as="geometry" />
        </mxCell>
        <mxCell id="f9SN7dFAWlkoOtjX_CD_-25" style="edgeStyle=orthogonalEdgeStyle;rounded=0;orthogonalLoop=1;jettySize=auto;html=1;curved=1;exitX=0.5;exitY=0;exitDx=0;exitDy=0;exitPerimeter=0;" parent="1" source="ZqFkhhLRCjHZOJYOurKl-7" target="f9SN7dFAWlkoOtjX_CD_-24" edge="1">
          <mxGeometry relative="1" as="geometry">
            <mxPoint x="-210" y="-235.45" as="sourcePoint" />
            <mxPoint x="-30" y="-235.45" as="targetPoint" />
            <Array as="points">
              <mxPoint x="-190" y="-200" />
              <mxPoint x="25" y="-200" />
            </Array>
          </mxGeometry>
        </mxCell>
        <mxCell id="f9SN7dFAWlkoOtjX_CD_-26" value="Выбор действия на &lt;br&gt;переход в кабинет" style="text;html=1;align=center;verticalAlign=middle;resizable=0;points=[];autosize=1;strokeColor=none;fillColor=none;" parent="1" vertex="1">
          <mxGeometry x="-160" y="-260" width="130" height="40" as="geometry" />
        </mxCell>
        <mxCell id="f9SN7dFAWlkoOtjX_CD_-27" value="Обработка запроса на выход из аккаунта&lt;br&gt;(форма выхода из аккаунта)" style="strokeWidth=2;html=1;shape=mxgraph.flowchart.terminator;whiteSpace=wrap;" parent="1" vertex="1">
          <mxGeometry x="-250" y="-540" width="130" height="90" as="geometry" />
        </mxCell>
        <mxCell id="f9SN7dFAWlkoOtjX_CD_-28" style="edgeStyle=orthogonalEdgeStyle;rounded=0;orthogonalLoop=1;jettySize=auto;html=1;curved=1;" parent="1" source="f9SN7dFAWlkoOtjX_CD_-24" target="f9SN7dFAWlkoOtjX_CD_-27" edge="1">
          <mxGeometry relative="1" as="geometry">
            <mxPoint x="-180" as="sourcePoint" />
            <mxPoint x="35" y="-260" as="targetPoint" />
            <Array as="points">
              <mxPoint x="35" y="-370" />
              <mxPoint x="35" y="-370" />
            </Array>
          </mxGeometry>
        </mxCell>
        <mxCell id="f9SN7dFAWlkoOtjX_CD_-29" style="edgeStyle=orthogonalEdgeStyle;rounded=0;orthogonalLoop=1;jettySize=auto;html=1;curved=1;entryX=0;entryY=0.5;entryDx=0;entryDy=0;entryPerimeter=0;" parent="1" source="f9SN7dFAWlkoOtjX_CD_-27" target="ZqFkhhLRCjHZOJYOurKl-3" edge="1">
          <mxGeometry relative="1" as="geometry">
            <mxPoint x="-210" y="-504" as="sourcePoint" />
            <mxPoint x="-210" y="-584" as="targetPoint" />
            <Array as="points">
              <mxPoint x="-790" y="-514" />
              <mxPoint x="-790" y="-10" />
            </Array>
          </mxGeometry>
        </mxCell>
        <mxCell id="f9SN7dFAWlkoOtjX_CD_-30" value="Переход на страницу&amp;nbsp;&lt;br&gt;(главная страница)" style="strokeWidth=2;html=1;shape=mxgraph.flowchart.terminator;whiteSpace=wrap;" parent="1" vertex="1">
          <mxGeometry x="-255" y="-400" width="130" height="80" as="geometry" />
        </mxCell>
        <mxCell id="f9SN7dFAWlkoOtjX_CD_-31" style="edgeStyle=orthogonalEdgeStyle;rounded=0;orthogonalLoop=1;jettySize=auto;html=1;curved=1;exitX=0.5;exitY=0;exitDx=0;exitDy=0;exitPerimeter=0;" parent="1" source="f9SN7dFAWlkoOtjX_CD_-24" target="f9SN7dFAWlkoOtjX_CD_-30" edge="1">
          <mxGeometry relative="1" as="geometry">
            <mxPoint x="275" y="-365" as="sourcePoint" />
            <mxPoint x="120" y="-500" as="targetPoint" />
            <Array as="points">
              <mxPoint x="-40" y="-360" />
              <mxPoint x="-40" y="-430" />
              <mxPoint x="-190" y="-430" />
            </Array>
          </mxGeometry>
        </mxCell>
        <mxCell id="f9SN7dFAWlkoOtjX_CD_-32" style="edgeStyle=orthogonalEdgeStyle;rounded=0;orthogonalLoop=1;jettySize=auto;html=1;curved=1;exitX=0.5;exitY=1;exitDx=0;exitDy=0;exitPerimeter=0;entryX=0.5;entryY=0;entryDx=0;entryDy=0;entryPerimeter=0;" parent="1" source="f9SN7dFAWlkoOtjX_CD_-30" target="ZqFkhhLRCjHZOJYOurKl-7" edge="1">
          <mxGeometry relative="1" as="geometry">
            <mxPoint x="190" y="-395" as="sourcePoint" />
            <mxPoint x="290" y="-400" as="targetPoint" />
            <Array as="points">
              <mxPoint x="-190" y="-200" />
              <mxPoint x="-190" y="-200" />
            </Array>
          </mxGeometry>
        </mxCell>
        <mxCell id="f9SN7dFAWlkoOtjX_CD_-33" style="edgeStyle=orthogonalEdgeStyle;rounded=0;orthogonalLoop=1;jettySize=auto;html=1;curved=1;exitX=1;exitY=0.5;exitDx=0;exitDy=0;exitPerimeter=0;entryX=0;entryY=0.5;entryDx=0;entryDy=0;entryPerimeter=0;" parent="1" source="f9SN7dFAWlkoOtjX_CD_-10" target="f9SN7dFAWlkoOtjX_CD_-14" edge="1">
          <mxGeometry relative="1" as="geometry">
            <mxPoint x="710" y="308.95" as="sourcePoint" />
            <mxPoint x="890" y="308.95" as="targetPoint" />
            <Array as="points">
              <mxPoint x="620" y="260" />
            </Array>
          </mxGeometry>
        </mxCell>
      </root>
    </mxGraphModel>
  </diagram>
  <diagram id="s0JK3L38kdMaO2lfotUP" name="Страница — 2">
    <mxGraphModel dx="2437" dy="2423" grid="1" gridSize="10" guides="1" tooltips="1" connect="1" arrows="1" fold="1" page="1" pageScale="1" pageWidth="827" pageHeight="1169" math="0" shadow="0">
      <root>
        <mxCell id="0" />
        <mxCell id="1" parent="0" />
        <mxCell id="zlyWYJ8HBz21ZEDZkuE5-1" value="Поведение пользователя" style="shape=umlFrame;whiteSpace=wrap;html=1;pointerEvents=0;width=100;height=30;" vertex="1" parent="1">
          <mxGeometry x="-820" y="-700" width="1740" height="1550" as="geometry" />
        </mxCell>
        <mxCell id="zlyWYJ8HBz21ZEDZkuE5-2" value="" style="shape=ellipse;html=1;fillColor=strokeColor;fontSize=18;fontColor=#ffffff;" vertex="1" parent="1">
          <mxGeometry x="-660" y="-60" width="20" height="20" as="geometry" />
        </mxCell>
        <mxCell id="zlyWYJ8HBz21ZEDZkuE5-3" value="" style="shape=mxgraph.sysml.actFinal;html=1;verticalLabelPosition=bottom;labelBackgroundColor=#ffffff;verticalAlign=top;" vertex="1" parent="1">
          <mxGeometry x="-660" y="-20" width="20" height="20" as="geometry" />
        </mxCell>
        <mxCell id="zlyWYJ8HBz21ZEDZkuE5-4" style="edgeStyle=orthogonalEdgeStyle;rounded=0;orthogonalLoop=1;jettySize=auto;html=1;curved=1;exitX=0.5;exitY=1;exitDx=0;exitDy=0;exitPerimeter=0;" edge="1" parent="1" source="zlyWYJ8HBz21ZEDZkuE5-6" target="zlyWYJ8HBz21ZEDZkuE5-10">
          <mxGeometry relative="1" as="geometry" />
        </mxCell>
        <mxCell id="zlyWYJ8HBz21ZEDZkuE5-5" style="edgeStyle=orthogonalEdgeStyle;rounded=0;orthogonalLoop=1;jettySize=auto;html=1;curved=1;entryX=0.5;entryY=0;entryDx=0;entryDy=0;entryPerimeter=0;" edge="1" parent="1" source="zlyWYJ8HBz21ZEDZkuE5-6" target="zlyWYJ8HBz21ZEDZkuE5-12">
          <mxGeometry relative="1" as="geometry">
            <mxPoint x="-300" y="130" as="targetPoint" />
            <Array as="points">
              <mxPoint x="-290" y="20" />
              <mxPoint x="-290" y="310" />
            </Array>
          </mxGeometry>
        </mxCell>
        <mxCell id="zlyWYJ8HBz21ZEDZkuE5-6" value="Ожидание выбора действия&lt;br&gt;(главная страница)" style="strokeWidth=2;html=1;shape=mxgraph.flowchart.terminator;whiteSpace=wrap;" vertex="1" parent="1">
          <mxGeometry x="-250" y="-10" width="120" height="60" as="geometry" />
        </mxCell>
        <mxCell id="zlyWYJ8HBz21ZEDZkuE5-7" style="edgeStyle=orthogonalEdgeStyle;rounded=0;orthogonalLoop=1;jettySize=auto;html=1;entryX=0;entryY=0.5;entryDx=0;entryDy=0;entryPerimeter=0;curved=1;" edge="1" parent="1" source="zlyWYJ8HBz21ZEDZkuE5-2" target="zlyWYJ8HBz21ZEDZkuE5-28">
          <mxGeometry relative="1" as="geometry">
            <Array as="points">
              <mxPoint x="-650" y="-70" />
              <mxPoint x="-500" y="-70" />
              <mxPoint x="-500" y="-140" />
            </Array>
            <mxPoint x="-430" y="-60" as="targetPoint" />
          </mxGeometry>
        </mxCell>
        <mxCell id="zlyWYJ8HBz21ZEDZkuE5-8" style="edgeStyle=orthogonalEdgeStyle;rounded=0;orthogonalLoop=1;jettySize=auto;html=1;curved=1;" edge="1" parent="1" source="zlyWYJ8HBz21ZEDZkuE5-10" target="zlyWYJ8HBz21ZEDZkuE5-12">
          <mxGeometry relative="1" as="geometry" />
        </mxCell>
        <mxCell id="zlyWYJ8HBz21ZEDZkuE5-9" style="edgeStyle=orthogonalEdgeStyle;rounded=0;orthogonalLoop=1;jettySize=auto;html=1;entryX=1;entryY=0.5;entryDx=0;entryDy=0;entryPerimeter=0;curved=1;exitX=1;exitY=0.5;exitDx=0;exitDy=0;exitPerimeter=0;" edge="1" parent="1" source="zlyWYJ8HBz21ZEDZkuE5-10" target="zlyWYJ8HBz21ZEDZkuE5-6">
          <mxGeometry relative="1" as="geometry">
            <Array as="points">
              <mxPoint x="80" y="160" />
              <mxPoint x="80" y="20" />
            </Array>
          </mxGeometry>
        </mxCell>
        <mxCell id="zlyWYJ8HBz21ZEDZkuE5-10" value="Обработка запроса на поиск экскурсии&lt;br&gt;(форма поиска экскурсии)" style="strokeWidth=2;html=1;shape=mxgraph.flowchart.terminator;whiteSpace=wrap;" vertex="1" parent="1">
          <mxGeometry x="-140" y="130" width="130" height="90" as="geometry" />
        </mxCell>
        <mxCell id="zlyWYJ8HBz21ZEDZkuE5-11" value="Выбор действия на &lt;br&gt;поиск экскурсии" style="text;html=1;align=center;verticalAlign=middle;resizable=0;points=[];autosize=1;strokeColor=none;fillColor=none;" vertex="1" parent="1">
          <mxGeometry x="-140" y="50" width="130" height="40" as="geometry" />
        </mxCell>
        <mxCell id="zlyWYJ8HBz21ZEDZkuE5-12" value="Ожидание обработки запроса&lt;br&gt;(страница с загрузкой)" style="strokeWidth=2;html=1;shape=mxgraph.flowchart.terminator;whiteSpace=wrap;" vertex="1" parent="1">
          <mxGeometry x="-250" y="310" width="120" height="70" as="geometry" />
        </mxCell>
        <mxCell id="zlyWYJ8HBz21ZEDZkuE5-13" value="Обработка запроса" style="text;html=1;align=center;verticalAlign=middle;resizable=0;points=[];autosize=1;strokeColor=none;fillColor=none;" vertex="1" parent="1">
          <mxGeometry x="-160" y="260" width="130" height="30" as="geometry" />
        </mxCell>
        <mxCell id="zlyWYJ8HBz21ZEDZkuE5-15" style="edgeStyle=orthogonalEdgeStyle;rounded=0;orthogonalLoop=1;jettySize=auto;html=1;curved=1;" edge="1" parent="1" source="zlyWYJ8HBz21ZEDZkuE5-17" target="zlyWYJ8HBz21ZEDZkuE5-19">
          <mxGeometry relative="1" as="geometry" />
        </mxCell>
        <mxCell id="zlyWYJ8HBz21ZEDZkuE5-16" style="edgeStyle=orthogonalEdgeStyle;rounded=0;orthogonalLoop=1;jettySize=auto;html=1;curved=1;" edge="1" parent="1" source="zlyWYJ8HBz21ZEDZkuE5-17" target="zlyWYJ8HBz21ZEDZkuE5-6">
          <mxGeometry relative="1" as="geometry">
            <mxPoint x="-105" y="600" as="targetPoint" />
            <Array as="points">
              <mxPoint x="80" y="530" />
              <mxPoint x="80" y="20" />
            </Array>
          </mxGeometry>
        </mxCell>
        <mxCell id="zlyWYJ8HBz21ZEDZkuE5-17" value="" style="strokeWidth=2;html=1;shape=mxgraph.flowchart.decision;whiteSpace=wrap;" vertex="1" parent="1">
          <mxGeometry x="-210" y="510" width="30" height="40" as="geometry" />
        </mxCell>
        <mxCell id="zlyWYJ8HBz21ZEDZkuE5-18" style="edgeStyle=orthogonalEdgeStyle;rounded=0;orthogonalLoop=1;jettySize=auto;html=1;entryX=0.5;entryY=0;entryDx=0;entryDy=0;entryPerimeter=0;" edge="1" parent="1" source="zlyWYJ8HBz21ZEDZkuE5-12" target="zlyWYJ8HBz21ZEDZkuE5-17">
          <mxGeometry relative="1" as="geometry">
            <mxPoint x="-195" y="450" as="sourcePoint" />
            <Array as="points">
              <mxPoint x="-195" y="410" />
              <mxPoint x="-195" y="410" />
            </Array>
          </mxGeometry>
        </mxCell>
        <mxCell id="zlyWYJ8HBz21ZEDZkuE5-19" value="Переход на страницу&amp;nbsp;&lt;br&gt;результатом поиска&amp;nbsp;" style="strokeWidth=2;html=1;shape=mxgraph.flowchart.terminator;whiteSpace=wrap;" vertex="1" parent="1">
          <mxGeometry x="-350" y="600" width="130" height="80" as="geometry" />
        </mxCell>
        <mxCell id="zlyWYJ8HBz21ZEDZkuE5-20" value="Одобрено" style="text;html=1;align=center;verticalAlign=middle;resizable=0;points=[];autosize=1;strokeColor=none;fillColor=none;" vertex="1" parent="1">
          <mxGeometry x="-340" y="515" width="80" height="30" as="geometry" />
        </mxCell>
        <mxCell id="zlyWYJ8HBz21ZEDZkuE5-21" value="Не одобрено" style="text;html=1;align=center;verticalAlign=middle;resizable=0;points=[];autosize=1;strokeColor=none;fillColor=none;" vertex="1" parent="1">
          <mxGeometry x="-100" y="485" width="100" height="30" as="geometry" />
        </mxCell>
        <mxCell id="zlyWYJ8HBz21ZEDZkuE5-22" style="edgeStyle=orthogonalEdgeStyle;rounded=0;orthogonalLoop=1;jettySize=auto;html=1;entryX=0.5;entryY=1;entryDx=0;entryDy=0;entryPerimeter=0;curved=1;" edge="1" parent="1" source="zlyWYJ8HBz21ZEDZkuE5-19" target="zlyWYJ8HBz21ZEDZkuE5-24">
          <mxGeometry relative="1" as="geometry">
            <Array as="points">
              <mxPoint x="-570" y="640" />
              <mxPoint x="-570" y="590" />
              <mxPoint x="-430" y="590" />
            </Array>
          </mxGeometry>
        </mxCell>
        <mxCell id="zlyWYJ8HBz21ZEDZkuE5-23" style="edgeStyle=orthogonalEdgeStyle;rounded=0;orthogonalLoop=1;jettySize=auto;html=1;curved=1;" edge="1" parent="1" source="zlyWYJ8HBz21ZEDZkuE5-24" target="zlyWYJ8HBz21ZEDZkuE5-25">
          <mxGeometry relative="1" as="geometry">
            <Array as="points">
              <mxPoint x="-440" y="405" />
              <mxPoint x="-413" y="405" />
            </Array>
          </mxGeometry>
        </mxCell>
        <mxCell id="zlyWYJ8HBz21ZEDZkuE5-24" value="Ожидание выбора действия&lt;br&gt;(Страница экскурсий)" style="strokeWidth=2;html=1;shape=mxgraph.flowchart.terminator;whiteSpace=wrap;" vertex="1" parent="1">
          <mxGeometry x="-490" y="470" width="120" height="60" as="geometry" />
        </mxCell>
        <mxCell id="zlyWYJ8HBz21ZEDZkuE5-25" value="Переход на страницу&amp;nbsp;&lt;br&gt;(главная страница)" style="strokeWidth=2;html=1;shape=mxgraph.flowchart.terminator;whiteSpace=wrap;" vertex="1" parent="1">
          <mxGeometry x="-478" y="260" width="130" height="80" as="geometry" />
        </mxCell>
        <mxCell id="zlyWYJ8HBz21ZEDZkuE5-26" style="edgeStyle=orthogonalEdgeStyle;rounded=0;orthogonalLoop=1;jettySize=auto;html=1;entryX=0;entryY=0.5;entryDx=0;entryDy=0;entryPerimeter=0;curved=1;" edge="1" parent="1" source="zlyWYJ8HBz21ZEDZkuE5-25" target="zlyWYJ8HBz21ZEDZkuE5-6">
          <mxGeometry relative="1" as="geometry" />
        </mxCell>
        <mxCell id="zlyWYJ8HBz21ZEDZkuE5-27" style="edgeStyle=orthogonalEdgeStyle;rounded=0;orthogonalLoop=1;jettySize=auto;html=1;entryX=0.5;entryY=0;entryDx=0;entryDy=0;entryPerimeter=0;curved=1;" edge="1" parent="1" source="zlyWYJ8HBz21ZEDZkuE5-24" target="zlyWYJ8HBz21ZEDZkuE5-10">
          <mxGeometry relative="1" as="geometry" />
        </mxCell>
        <mxCell id="zlyWYJ8HBz21ZEDZkuE5-28" value="Ожидание логина и пароля&lt;br&gt;(форма авторизации)" style="strokeWidth=2;html=1;shape=mxgraph.flowchart.terminator;whiteSpace=wrap;" vertex="1" parent="1">
          <mxGeometry x="-435" y="-170" width="100" height="60" as="geometry" />
        </mxCell>
        <mxCell id="zlyWYJ8HBz21ZEDZkuE5-29" style="edgeStyle=orthogonalEdgeStyle;rounded=0;orthogonalLoop=1;jettySize=auto;html=1;entryX=0.634;entryY=0.502;entryDx=0;entryDy=0;entryPerimeter=0;curved=1;" edge="1" parent="1" source="zlyWYJ8HBz21ZEDZkuE5-28" target="zlyWYJ8HBz21ZEDZkuE5-3">
          <mxGeometry relative="1" as="geometry">
            <Array as="points">
              <mxPoint x="-300" y="-140" />
              <mxPoint x="-300" y="-60" />
              <mxPoint x="-490" y="-60" />
              <mxPoint x="-490" y="-40" />
              <mxPoint x="-647" y="-40" />
            </Array>
            <mxPoint x="-425" y="-130" as="targetPoint" />
            <mxPoint x="-640" y="-50" as="sourcePoint" />
          </mxGeometry>
        </mxCell>
        <mxCell id="zlyWYJ8HBz21ZEDZkuE5-30" value="Логин и пароль неверны" style="text;html=1;align=center;verticalAlign=middle;resizable=0;points=[];autosize=1;strokeColor=none;fillColor=none;" vertex="1" parent="1">
          <mxGeometry x="-483" y="-50" width="160" height="30" as="geometry" />
        </mxCell>
        <mxCell id="zlyWYJ8HBz21ZEDZkuE5-31" style="edgeStyle=orthogonalEdgeStyle;rounded=0;orthogonalLoop=1;jettySize=auto;html=1;curved=1;" edge="1" parent="1" source="zlyWYJ8HBz21ZEDZkuE5-28" target="zlyWYJ8HBz21ZEDZkuE5-6">
          <mxGeometry relative="1" as="geometry">
            <Array as="points">
              <mxPoint x="-250" y="-150" />
              <mxPoint x="-250" y="-80" />
              <mxPoint x="-190" y="-80" />
            </Array>
            <mxPoint x="-55" y="-220" as="targetPoint" />
            <mxPoint x="-270" y="-140" as="sourcePoint" />
          </mxGeometry>
        </mxCell>
        <mxCell id="zlyWYJ8HBz21ZEDZkuE5-32" value="Логин и пароль верные" style="text;html=1;align=center;verticalAlign=middle;resizable=0;points=[];autosize=1;strokeColor=none;fillColor=none;" vertex="1" parent="1">
          <mxGeometry x="-348" y="-180" width="150" height="30" as="geometry" />
        </mxCell>
        <mxCell id="zlyWYJ8HBz21ZEDZkuE5-45" value="Ожидание выбора действия&lt;br style=&quot;border-color: var(--border-color);&quot;&gt;(Страница кабинета пользователя)" style="strokeWidth=2;html=1;shape=mxgraph.flowchart.terminator;whiteSpace=wrap;" vertex="1" parent="1">
          <mxGeometry x="-40" y="-360" width="130" height="90" as="geometry" />
        </mxCell>
        <mxCell id="zlyWYJ8HBz21ZEDZkuE5-46" style="edgeStyle=orthogonalEdgeStyle;rounded=0;orthogonalLoop=1;jettySize=auto;html=1;curved=1;exitX=0.5;exitY=0;exitDx=0;exitDy=0;exitPerimeter=0;" edge="1" parent="1" source="zlyWYJ8HBz21ZEDZkuE5-6" target="zlyWYJ8HBz21ZEDZkuE5-45">
          <mxGeometry relative="1" as="geometry">
            <mxPoint x="-210" y="-235.45" as="sourcePoint" />
            <mxPoint x="-30" y="-235.45" as="targetPoint" />
            <Array as="points">
              <mxPoint x="-190" y="-200" />
              <mxPoint x="25" y="-200" />
            </Array>
          </mxGeometry>
        </mxCell>
        <mxCell id="zlyWYJ8HBz21ZEDZkuE5-47" value="Выбор действия на &lt;br&gt;переход в кабинет" style="text;html=1;align=center;verticalAlign=middle;resizable=0;points=[];autosize=1;strokeColor=none;fillColor=none;" vertex="1" parent="1">
          <mxGeometry x="-160" y="-260" width="130" height="40" as="geometry" />
        </mxCell>
        <mxCell id="zlyWYJ8HBz21ZEDZkuE5-48" value="Обработка запроса на выход из аккаунта&lt;br&gt;(форма выхода из аккаунта)" style="strokeWidth=2;html=1;shape=mxgraph.flowchart.terminator;whiteSpace=wrap;" vertex="1" parent="1">
          <mxGeometry x="-250" y="-540" width="130" height="90" as="geometry" />
        </mxCell>
        <mxCell id="zlyWYJ8HBz21ZEDZkuE5-49" style="edgeStyle=orthogonalEdgeStyle;rounded=0;orthogonalLoop=1;jettySize=auto;html=1;curved=1;" edge="1" parent="1" source="zlyWYJ8HBz21ZEDZkuE5-45" target="zlyWYJ8HBz21ZEDZkuE5-48">
          <mxGeometry relative="1" as="geometry">
            <mxPoint x="-180" as="sourcePoint" />
            <mxPoint x="35" y="-260" as="targetPoint" />
            <Array as="points">
              <mxPoint x="35" y="-370" />
              <mxPoint x="35" y="-370" />
            </Array>
          </mxGeometry>
        </mxCell>
        <mxCell id="zlyWYJ8HBz21ZEDZkuE5-50" style="edgeStyle=orthogonalEdgeStyle;rounded=0;orthogonalLoop=1;jettySize=auto;html=1;curved=1;entryX=0;entryY=0.5;entryDx=0;entryDy=0;entryPerimeter=0;" edge="1" parent="1" source="zlyWYJ8HBz21ZEDZkuE5-48" target="zlyWYJ8HBz21ZEDZkuE5-3">
          <mxGeometry relative="1" as="geometry">
            <mxPoint x="-210" y="-504" as="sourcePoint" />
            <mxPoint x="-210" y="-584" as="targetPoint" />
            <Array as="points">
              <mxPoint x="-790" y="-514" />
              <mxPoint x="-790" y="-10" />
            </Array>
          </mxGeometry>
        </mxCell>
        <mxCell id="zlyWYJ8HBz21ZEDZkuE5-51" value="Переход на страницу&amp;nbsp;&lt;br&gt;(главная страница)" style="strokeWidth=2;html=1;shape=mxgraph.flowchart.terminator;whiteSpace=wrap;" vertex="1" parent="1">
          <mxGeometry x="-255" y="-350" width="130" height="80" as="geometry" />
        </mxCell>
        <mxCell id="zlyWYJ8HBz21ZEDZkuE5-52" style="edgeStyle=orthogonalEdgeStyle;rounded=0;orthogonalLoop=1;jettySize=auto;html=1;curved=1;exitX=0.5;exitY=0;exitDx=0;exitDy=0;exitPerimeter=0;" edge="1" parent="1" source="zlyWYJ8HBz21ZEDZkuE5-45" target="zlyWYJ8HBz21ZEDZkuE5-51">
          <mxGeometry relative="1" as="geometry">
            <mxPoint x="275" y="-365" as="sourcePoint" />
            <mxPoint x="120" y="-500" as="targetPoint" />
            <Array as="points">
              <mxPoint x="-40" y="-360" />
              <mxPoint x="-40" y="-430" />
              <mxPoint x="-190" y="-430" />
            </Array>
          </mxGeometry>
        </mxCell>
        <mxCell id="zlyWYJ8HBz21ZEDZkuE5-53" style="edgeStyle=orthogonalEdgeStyle;rounded=0;orthogonalLoop=1;jettySize=auto;html=1;curved=1;exitX=0.5;exitY=1;exitDx=0;exitDy=0;exitPerimeter=0;entryX=0.5;entryY=0;entryDx=0;entryDy=0;entryPerimeter=0;" edge="1" parent="1" source="zlyWYJ8HBz21ZEDZkuE5-51" target="zlyWYJ8HBz21ZEDZkuE5-6">
          <mxGeometry relative="1" as="geometry">
            <mxPoint x="190" y="-395" as="sourcePoint" />
            <mxPoint x="290" y="-400" as="targetPoint" />
            <Array as="points">
              <mxPoint x="-190" y="-200" />
              <mxPoint x="-190" y="-200" />
            </Array>
          </mxGeometry>
        </mxCell>
        <mxCell id="zlyWYJ8HBz21ZEDZkuE5-55" value="Обработка запроса на изменения экскурсии&lt;br style=&quot;border-color: var(--border-color);&quot;&gt;(форма изменения экскурсии)" style="strokeWidth=2;html=1;shape=mxgraph.flowchart.terminator;whiteSpace=wrap;" vertex="1" parent="1">
          <mxGeometry x="294" y="130" width="156" height="90" as="geometry" />
        </mxCell>
        <mxCell id="zlyWYJ8HBz21ZEDZkuE5-58" value="Обработка запроса на удаление экскурсии&lt;br style=&quot;border-color: var(--border-color);&quot;&gt;(форма удаления экскурсии)" style="strokeWidth=2;html=1;shape=mxgraph.flowchart.terminator;whiteSpace=wrap;" vertex="1" parent="1">
          <mxGeometry x="294" y="260" width="156" height="90" as="geometry" />
        </mxCell>
        <mxCell id="zlyWYJ8HBz21ZEDZkuE5-60" style="edgeStyle=orthogonalEdgeStyle;rounded=0;orthogonalLoop=1;jettySize=auto;html=1;curved=1;exitX=1;exitY=0.5;exitDx=0;exitDy=0;exitPerimeter=0;entryX=0;entryY=0.5;entryDx=0;entryDy=0;entryPerimeter=0;" edge="1" parent="1" source="zlyWYJ8HBz21ZEDZkuE5-19" target="zlyWYJ8HBz21ZEDZkuE5-55">
          <mxGeometry relative="1" as="geometry">
            <Array as="points">
              <mxPoint x="170" y="640" />
              <mxPoint x="170" y="175" />
            </Array>
            <mxPoint x="-40" y="680" as="sourcePoint" />
            <mxPoint x="-13" y="550" as="targetPoint" />
          </mxGeometry>
        </mxCell>
        <mxCell id="zlyWYJ8HBz21ZEDZkuE5-61" style="edgeStyle=orthogonalEdgeStyle;rounded=0;orthogonalLoop=1;jettySize=auto;html=1;curved=1;exitX=1;exitY=0.5;exitDx=0;exitDy=0;exitPerimeter=0;entryX=0;entryY=0.5;entryDx=0;entryDy=0;entryPerimeter=0;" edge="1" parent="1" source="zlyWYJ8HBz21ZEDZkuE5-19" target="zlyWYJ8HBz21ZEDZkuE5-58">
          <mxGeometry relative="1" as="geometry">
            <Array as="points">
              <mxPoint x="140" y="640" />
              <mxPoint x="140" y="305" />
            </Array>
            <mxPoint x="-210" y="650" as="sourcePoint" />
            <mxPoint x="304" y="185" as="targetPoint" />
          </mxGeometry>
        </mxCell>
        <mxCell id="zlyWYJ8HBz21ZEDZkuE5-62" value="Выбор действия на &lt;br&gt;удаление экскурсии" style="text;html=1;align=center;verticalAlign=middle;resizable=0;points=[];autosize=1;strokeColor=none;fillColor=none;" vertex="1" parent="1">
          <mxGeometry x="175" y="350" width="140" height="40" as="geometry" />
        </mxCell>
        <mxCell id="zlyWYJ8HBz21ZEDZkuE5-64" value="Выбор действия на &lt;br&gt;изменения экскурсии" style="text;html=1;align=center;verticalAlign=middle;resizable=0;points=[];autosize=1;strokeColor=none;fillColor=none;" vertex="1" parent="1">
          <mxGeometry x="120" y="130" width="150" height="40" as="geometry" />
        </mxCell>
        <mxCell id="zlyWYJ8HBz21ZEDZkuE5-66" value="Переход на страницу&amp;nbsp;&lt;br&gt;(главная страница)" style="strokeWidth=2;html=1;shape=mxgraph.flowchart.terminator;whiteSpace=wrap;" vertex="1" parent="1">
          <mxGeometry x="540" y="135" width="130" height="80" as="geometry" />
        </mxCell>
        <mxCell id="zlyWYJ8HBz21ZEDZkuE5-67" value="Переход на страницу&amp;nbsp;&lt;br&gt;(главная страница)" style="strokeWidth=2;html=1;shape=mxgraph.flowchart.terminator;whiteSpace=wrap;" vertex="1" parent="1">
          <mxGeometry x="540" y="265" width="130" height="80" as="geometry" />
        </mxCell>
        <mxCell id="zlyWYJ8HBz21ZEDZkuE5-68" style="edgeStyle=orthogonalEdgeStyle;rounded=0;orthogonalLoop=1;jettySize=auto;html=1;curved=1;exitX=1;exitY=0.5;exitDx=0;exitDy=0;exitPerimeter=0;entryX=0;entryY=0.5;entryDx=0;entryDy=0;entryPerimeter=0;" edge="1" parent="1" source="zlyWYJ8HBz21ZEDZkuE5-55" target="zlyWYJ8HBz21ZEDZkuE5-66">
          <mxGeometry relative="1" as="geometry">
            <Array as="points">
              <mxPoint x="510" y="175" />
              <mxPoint x="510" y="175" />
            </Array>
            <mxPoint x="500" y="85" as="sourcePoint" />
            <mxPoint x="527" y="-45" as="targetPoint" />
          </mxGeometry>
        </mxCell>
        <mxCell id="zlyWYJ8HBz21ZEDZkuE5-69" style="edgeStyle=orthogonalEdgeStyle;rounded=0;orthogonalLoop=1;jettySize=auto;html=1;curved=1;entryX=0;entryY=0.5;entryDx=0;entryDy=0;entryPerimeter=0;exitX=1;exitY=0.5;exitDx=0;exitDy=0;exitPerimeter=0;" edge="1" parent="1" source="zlyWYJ8HBz21ZEDZkuE5-58" target="zlyWYJ8HBz21ZEDZkuE5-67">
          <mxGeometry relative="1" as="geometry">
            <Array as="points">
              <mxPoint x="500" y="305" />
              <mxPoint x="500" y="305" />
            </Array>
            <mxPoint x="490" y="485" as="sourcePoint" />
            <mxPoint x="517" y="355" as="targetPoint" />
          </mxGeometry>
        </mxCell>
        <mxCell id="zlyWYJ8HBz21ZEDZkuE5-70" style="edgeStyle=orthogonalEdgeStyle;rounded=0;orthogonalLoop=1;jettySize=auto;html=1;curved=1;exitX=1;exitY=0.5;exitDx=0;exitDy=0;exitPerimeter=0;entryX=0;entryY=0.5;entryDx=0;entryDy=0;entryPerimeter=0;" edge="1" parent="1" source="zlyWYJ8HBz21ZEDZkuE5-66" target="zlyWYJ8HBz21ZEDZkuE5-6">
          <mxGeometry relative="1" as="geometry">
            <Array as="points">
              <mxPoint x="800" y="175" />
              <mxPoint x="800" y="760" />
              <mxPoint x="-710" y="760" />
              <mxPoint x="-710" y="20" />
            </Array>
            <mxPoint x="690" y="120" as="sourcePoint" />
            <mxPoint x="780" y="120" as="targetPoint" />
          </mxGeometry>
        </mxCell>
        <mxCell id="zlyWYJ8HBz21ZEDZkuE5-71" style="edgeStyle=orthogonalEdgeStyle;rounded=0;orthogonalLoop=1;jettySize=auto;html=1;curved=1;exitX=1;exitY=0.5;exitDx=0;exitDy=0;exitPerimeter=0;entryX=0;entryY=0.5;entryDx=0;entryDy=0;entryPerimeter=0;" edge="1" parent="1" source="zlyWYJ8HBz21ZEDZkuE5-67" target="zlyWYJ8HBz21ZEDZkuE5-6">
          <mxGeometry relative="1" as="geometry">
            <Array as="points">
              <mxPoint x="800" y="305" />
              <mxPoint x="800" y="760" />
              <mxPoint x="-710" y="760" />
              <mxPoint x="-710" y="20" />
            </Array>
            <mxPoint x="470" y="195" as="sourcePoint" />
            <mxPoint x="560" y="195" as="targetPoint" />
          </mxGeometry>
        </mxCell>
      </root>
    </mxGraphModel>
  </diagram>
</mxfile>
